# xmcd
#
# Track frame offsets: 
#        150
#        13027
#        24306
#        37775
#        51187
#        64125
#        74890
#        86792
#        99735
#        112617
#        124987
#        138570
#        150582
#
# Disc length: 2160 seconds
#
# Revision: 0
# Processed by: cddbd v1.5.2PL0 Copyright (c) Steve Scherf et al.
# Submitted via: ExactAudioCopy v0.99pb4
#
DISCID=ae086e0d
DTITLE=Robert Johnson - The Complete Recordings [CD1]
DYEAR=2008
DGENRE=Blues
TTITLE0=Kind Hearted Woman Blues (take 1)
TTITLE1=Kind Hearted Woman Blues (take 2)
TTITLE2=I Believe I'll Dust My Broom
TTITLE3=Sweet Home Chicago
TTITLE4=Rambling On My Mind (take 1)
TTITLE5=Rambling On My Mind (take 2)
TTITLE6=When You Got A Good Friend (take 1)
TTITLE7=When You Got A Good Friend (take 2)
TTITLE8=Come On In My Kitchen (take 1)
TTITLE9=Come On In My Kitchen (take 2)
TTITLE10=Terraplane Blues
TTITLE11=Phonograph Blues (take 1)
TTITLE12=Phonograph Blues (take 2)
EXTD=
EXTT0=
EXTT1=
EXTT2=
EXTT3=
EXTT4=
EXTT5=
EXTT6=
EXTT7=
EXTT8=
EXTT9=
EXTT10=
EXTT11=
EXTT12=
PLAYORDER=
